{
  "accessors": [
    {
      "bufferView": 2,
      "componentType": 5126,
      "count": 65532,
      "max": [
        0.6216580271720886,
        0.6951190233230591,
        0.9987130165100098
      ],
      "min": [
        -0.6233720183372498,
        -0.7193760275840759,
        -0.9997860193252563
      ],
      "type": "VEC3"
    },
    {
      "bufferView": 2,
      "byteOffset": 786384,
      "componentType": 5126,
      "count": 65532,
      "max": [
        1.0,
        0.9999646544456482,
        0.9999808669090271
      ],
      "min": [
        -1.0,
        -0.9999802112579346,
        -0.9999874830245972
      ],
      "type": "VEC3"
    },
    {
      "bufferView": 3,
      "componentType": 5126,
      "count": 65532,
      "max": [
        0.9999940991401672,
        0.9999871850013733,
        0.9999232888221741,
        1.0
      ],
      "min": [
        -0.9999995827674866,
        -0.9999967813491821,
        -0.999966561794281,
        -1.0
      ],
      "type": "VEC4"
    },
    {
      "bufferView": 1,
      "componentType": 5126,
      "count": 65532,
      "max": [
        0.9665729999542236,
        0.9965130090713501
      ],
      "min": [
        0.0008726899977773428,
        0.0003126199881080538
      ],
      "type": "VEC2"
    },
    {
      "bufferView": 0,
      "componentType": 5125,
      "count": 354483,
      "type": "SCALAR"
    },
    {
      "bufferView": 2,
      "byteOffset": 1572768,
      "componentType": 5126,
      "count": 43303,
      "max": [
        0.6233720183372498,
        0.7196729779243469,
        1.0
      ],
      "min": [
        -0.6215749979019165,
        -0.7196729779243469,
        -1.0
      ],
      "type": "VEC3"
    },
    {
      "bufferView": 2,
      "byteOffset": 2092404,
      "componentType": 5126,
      "count": 43303,
      "max": [
        0.999986469745636,
        0.999996542930603,
        0.9999998807907104
      ],
      "min": [
        -0.9999865293502808,
        -0.9999757409095764,
        -0.9999867677688599
      ],
      "type": "VEC3"
    },
    {
      "bufferView": 3,
      "byteOffset": 1048512,
      "componentType": 5126,
      "count": 43303,
      "max": [
        0.9999645352363586,
        0.9999701380729675,
        0.9999488592147827,
        1.0
      ],
      "min": [
        -1.0,
        -0.9999845027923584,
        -0.9999254941940308,
        -1.0
      ],
      "type": "VEC4"
    },
    {
      "bufferView": 1,
      "byteOffset": 524256,
      "componentType": 5126,
      "count": 43303,
      "max": [
        0.9961310029029846,
        0.9843850135803223
      ],
      "min": [
        0.0003126199881080538,
        0.00031408300856128335
      ],
      "type": "VEC2"
    },
    {
      "bufferView": 0,
      "byteOffset": 1417932,
      "componentType": 5125,
      "count": 219405,
      "type": "SCALAR"
    }
  ],
  "asset": {
    "extras": {
      "author": "Jorma Rysky (Joona Venäläinen) (https://sketchfab.com/Rysky)",
      "license": "CC-BY-4.0 (http://creativecommons.org/licenses/by/4.0/)",
      "source": "https://sketchfab.com/3d-models/phenebub-free-horror-creature-e18dbcb6300b4421aac2bb51cc060aed",
      "title": "Phenebub [free horror creature]"
    },
    "generator": "Sketchfab-12.68.0",
    "version": "2.0"
  },
  "bufferViews": [
    {
      "buffer": 0,
      "byteLength": 2295552,
      "name": "floatBufferViews",
      "target": 34963
    },
    {
      "buffer": 0,
      "byteLength": 870680,
      "byteOffset": 2295552,
      "byteStride": 8,
      "name": "floatBufferViews",
      "target": 34962
    },
    {
      "buffer": 0,
      "byteLength": 2612040,
      "byteOffset": 3166232,
      "byteStride": 12,
      "name": "floatBufferViews",
      "target": 34962
    },
    {
      "buffer": 0,
      "byteLength": 1741360,
      "byteOffset": 5778272,
      "byteStride": 16,
      "name": "floatBufferViews",
      "target": 34962
    }
  ],
  "buffers": [
    {
      "byteLength": 7519632,
      "uri": "scene.bin"
    }
  ],
  "images": [
    {
      "uri": "textures/DefaultMaterial_baseColor.jpeg"
    },
    {
      "uri": "textures/DefaultMaterial_metallicRoughness.png"
    },
    {
      "uri": "textures/DefaultMaterial_normal.png"
    }
  ],
  "materials": [
    {
      "doubleSided": true,
      "name": "DefaultMaterial",
      "normalTexture": {
        "index": 2
      },
      "occlusionTexture": {
        "index": 1
      },
      "pbrMetallicRoughness": {
        "baseColorTexture": {
          "index": 0
        },
        "metallicRoughnessTexture": {
          "index": 1
        }
      }
    }
  ],
  "meshes": [
    {
      "name": "defaultMaterial",
      "primitives": [
        {
          "attributes": {
            "NORMAL": 1,
            "POSITION": 0,
            "TANGENT": 2,
            "TEXCOORD_0": 3
          },
          "indices": 4,
          "material": 0,
          "mode": 4
        }
      ]
    },
    {
      "name": "defaultMaterial",
      "primitives": [
        {
          "attributes": {
            "NORMAL": 6,
            "POSITION": 5,
            "TANGENT": 7,
            "TEXCOORD_0": 8
          },
          "indices": 9,
          "material": 0,
          "mode": 4
        }
      ]
    }
  ],
  "nodes": [
    {
      "children": [
        1
      ],
      "matrix": [
        1.99930739402771,
        0.0,
        0.0,
        0.0,
        0.0,
        4.4393542043057676e-16,
        -1.99930739402771,
        0.0,
        0.0,
        1.99930739402771,
        4.4393542043057676e-16,
        0.0,
        0.0,
        0.0,
        0.0,
        1.0
      ],
      "name": "Sketchfab_model"
    },
    {
      "children": [
        2
      ],
      "matrix": [
        1.0,
        0.0,
        0.0,
        0.0,
        0.0,
        -4.371139006309477e-08,
        0.999999999999999,
        0.0,
        0.0,
        -0.999999999999999,
        -4.371139006309477e-08,
        0.0,
        0.0,
        0.0,
        0.0,
        1.0
      ],
      "name": "Collada visual scene group"
    },
    {
      "children": [
        3,
        4
      ],
      "name": "Circle.005"
    },
    {
      "mesh": 0,
      "name": "defaultMaterial"
    },
    {
      "mesh": 1,
      "name": "defaultMaterial"
    }
  ],
  "samplers": [
    {
      "magFilter": 9729,
      "minFilter": 9987,
      "wrapS": 10497,
      "wrapT": 10497
    }
  ],
  "scene": 0,
  "scenes": [
    {
      "name": "Sketchfab_Scene",
      "nodes": [
        0
      ]
    }
  ],
  "textures": [
    {
      "sampler": 0,
      "source": 0
    },
    {
      "sampler": 0,
      "source": 1
    },
    {
      "sampler": 0,
      "source": 2
    }
  ]
}
